<svg width="62" height="59" viewBox="0 0 62 59" fill="none" xmlns="http://www.w3.org/2000/svg">
<path d="M31.0001 0L55.2369 11.6718L61.2229 37.8981L44.4505 58.93H17.5497L0.777344 37.8981L6.76333 11.6718L31.0001 0Z" fill="url(#paint0_linear_41_2)"/>
<path d="M38.5552 32.083C40.6071 31.6799 42.186 30.3909 42.6863 27.6375C43.3754 23.8761 40.564 21.7491 36.6735 20.2642L38.1177 15.1858L35.0262 14.3062L33.6184 19.2505C32.805 19.019 31.9713 18.7991 31.1412 18.5808L32.5565 13.6041L29.468 12.725L28.0228 17.8017C27.3495 17.6249 26.6884 17.4508 26.0465 17.2682L26.0508 17.2532L21.7872 16.0381L20.8485 19.3391C20.8485 19.3391 23.1437 19.9457 23.0943 19.9767C24.3457 20.3338 24.5476 21.177 24.4866 21.8379L20.5292 35.7493C20.362 36.1274 19.951 36.6907 19.0755 36.4428C19.1053 36.4892 16.8267 35.8025 16.8267 35.8025L15.1632 39.319L19.1856 40.4636C19.9349 40.6777 20.668 40.899 21.3889 41.1103L19.9302 46.2467L23.0179 47.1262L24.463 42.0442C25.3076 42.3032 26.1255 42.5441 26.9268 42.771L25.4867 47.8287L28.578 48.7083L30.0387 43.5818C35.32 44.762 39.3304 44.4879 41.1714 39.7362C42.6541 35.9107 41.304 33.6306 38.5552 32.083ZM30.1811 22.2355C31.9246 22.7316 37.566 23.7366 36.5303 27.3794C35.5359 30.8713 30.1703 28.9035 28.425 28.4069L30.1811 22.2355ZM25.6009 38.3266L27.5385 31.5224C29.6335 32.1179 36.3753 33.3853 35.237 37.3891C34.1453 41.2288 27.6975 38.9216 25.6009 38.3266Z" fill="white"/>
<defs>
<linearGradient id="paint0_linear_41_2" x1="11.6911" y1="-4.24834e-07" x2="44.3144" y2="54.7564" gradientUnits="userSpaceOnUse">
<stop stop-color="#DBFF01"/>
<stop offset="0.4375" stop-color="#E5C554"/>
<stop offset="1" stop-color="#E48901"/>
</linearGradient>
</defs>
</svg>
